<?xml version="1.0" encoding="utf-8"?>
<!-- Generator: Adobe Illustrator 16.0.0, SVG Export Plug-In . SVG Version: 6.00 Build 0)  -->
<!DOCTYPE svg PUBLIC "-//W3C//DTD SVG 1.1//EN" "http://www.w3.org/Graphics/SVG/1.1/DTD/svg11.dtd">
<svg version="1.1" id="Layer_2" xmlns="http://www.w3.org/2000/svg" xmlns:xlink="http://www.w3.org/1999/xlink" x="0px" y="0px"
	 width="359.104px" height="173.227px" viewBox="0 0 359.104 173.227" enable-background="new 0 0 359.104 173.227"
	 xml:space="preserve">
<g id="Layer_1">
	
		<image display="none" overflow="visible" enable-background="new    " width="1005" height="1083" xlink:href="B64FC04F.jpeg"  transform="matrix(0.5934 0 0 0.5947 -1922.718 156.7668)">
	</image>
	<g>
		<g>
			<path fill="#F58220" d="M90.781,0.149l2.529,43.158c0.298,0,0.596,0,0.743,0L98.817,0L90.781,0.149L90.781,0.149z"/>
			<path fill="#F58220" d="M61.016,4.168L78.13,43.903c0.298-0.148,0.447-0.148,0.744-0.298L68.605,1.34L61.016,4.168L61.016,4.168z
				"/>
			<path fill="#F58220" d="M34.377,18.008l29.615,31.401c0.149-0.149,0.446-0.299,0.596-0.447L40.479,12.799L34.377,18.008
				L34.377,18.008z"/>
			<path fill="#F58220" d="M14.137,40.331l38.693,19.347c0.148-0.298,0.298-0.447,0.446-0.744L18.156,33.188L14.137,40.331
				L14.137,40.331z"/>
			<path fill="#F58220" d="M2.678,68.16l43.01,5.06c0-0.297,0.147-0.595,0.147-0.743L4.018,60.273L2.678,68.16L2.678,68.16z"/>
			<path fill="#F58220" d="M1.489,98.073l42.116-9.972c0-0.298-0.149-0.596-0.149-0.743L0.001,90.185L1.489,98.073L1.489,98.073z"/>
			<path fill="#F58220" d="M10.567,126.796l36.163-23.812c-0.149-0.299-0.298-0.446-0.446-0.744L6.549,119.801L10.567,126.796
				L10.567,126.796z"/>
			<path fill="#F58220" d="M28.871,150.607l25.746-34.675c-0.149-0.148-0.447-0.298-0.596-0.596L22.62,145.398L28.871,150.607
				L28.871,150.607z"/>
			<path fill="#F58220" d="M54.32,166.679l12.352-41.371c-0.297-0.148-0.445-0.148-0.744-0.298L46.731,164L54.32,166.679
				L54.32,166.679z"/>
			<path fill="#F58220" d="M83.636,173.078l-2.529-43.157c-0.297,0-0.596,0-0.744,0l-4.762,43.307L83.636,173.078L83.636,173.078z"
				/>
			<path fill="#F58220" d="M113.55,169.061l-17.113-39.734c-0.299,0.148-0.447,0.148-0.744,0.298l10.417,42.265L113.55,169.061
				L113.55,169.061z"/>
			<path fill="#F58220" d="M140.039,155.22l-29.615-31.399c-0.147,0.147-0.445,0.297-0.595,0.595l24.108,36.163L140.039,155.22
				L140.039,155.22z"/>
			<path fill="#F58220" d="M145.546,22.622L119.8,57.297c0.149,0.148,0.446,0.298,0.597,0.595l31.399-30.062L145.546,22.622
				L145.546,22.622z"/>
			<path fill="#F58220" d="M120.098,6.549L107.745,48.07c0.298,0.148,0.447,0.148,0.744,0.298l19.198-38.991L120.098,6.549
				L120.098,6.549z"/>
			<path fill="#F58220" d="M78.577,12.948l6.994,29.913c0.298,0,0.596-0.148,0.744-0.148L84.38,11.757L78.577,12.948L78.577,12.948z
				"/>
			<path fill="#F58220" d="M54.022,20.389l16.815,25.746c0.298-0.148,0.446-0.297,0.744-0.446L59.23,17.264L54.022,20.389
				L54.022,20.389z"/>
			<path fill="#F58220" d="M33.336,35.718L58.04,54.172c0.148-0.149,0.297-0.447,0.595-0.595l-21.43-22.473L33.336,35.718
				L33.336,35.718z"/>
			<path fill="#F58220" d="M19.198,57.148l29.467,8.931c0.148-0.298,0.148-0.447,0.298-0.744l-27.83-13.84L19.198,57.148
				L19.198,57.148z"/>
			<path fill="#F58220" d="M13.245,82.298l30.656-1.785c0-0.298,0-0.596,0-0.744l-30.807-3.571L13.245,82.298L13.245,82.298z"/>
			<path fill="#F58220" d="M16.22,107.896l28.276-12.202c-0.147-0.299-0.147-0.447-0.298-0.744l-30.21,7.292L16.22,107.896
				L16.22,107.896z"/>
			<path fill="#F58220" d="M27.681,130.962l22.321-21.132c-0.147-0.149-0.297-0.446-0.445-0.596l-25.896,17.113L27.681,130.962
				L27.681,130.962z"/>
			<path fill="#F58220" d="M46.432,148.523l13.84-27.531c-0.297-0.148-0.446-0.298-0.744-0.446l-18.453,25.002L46.432,148.523
				L46.432,148.523z"/>
			<path fill="#F58220" d="M70.094,158.792l3.572-30.509c-0.298,0-0.596-0.148-0.744-0.148L64.142,157.9L70.094,158.792
				L70.094,158.792z"/>
			<path fill="#F58220" d="M95.84,160.281l-6.994-29.913c-0.298,0-0.596,0.147-0.743,0.147l1.935,30.955L95.84,160.281
				L95.84,160.281z"/>
			<path fill="#F58220" d="M120.544,152.839l-16.966-25.597c-0.297,0.147-0.446,0.297-0.744,0.445l12.354,28.426L120.544,152.839
				L120.544,152.839z"/>
			<path fill="#F58220" d="M127.986,24.705l-13.841,27.53c0.298,0.149,0.445,0.299,0.744,0.447l18.453-25.002L127.986,24.705
				L127.986,24.705z"/>
			<path fill="#F58220" d="M104.323,14.437l-3.571,30.508c0.298,0,0.597,0.149,0.744,0.149l8.78-29.764L104.323,14.437
				L104.323,14.437z"/>
		</g>
		<path fill="#00A651" d="M106.704,98.669c-1.935,4.166-4.763,7.44-8.632,9.821c-3.869,2.382-8.334,3.571-13.543,3.571
			c-3.423,0-6.696-0.596-9.822-1.935c-2.976-1.34-5.654-3.126-7.887-5.357s-4.02-5.061-5.209-8.036
			c-1.34-3.125-1.936-6.398-1.936-9.972c0-3.57,0.596-6.846,1.936-9.971c1.339-3.125,2.977-5.804,5.209-8.036
			c2.231-2.232,4.762-4.167,7.887-5.357c2.978-1.34,6.251-1.935,9.822-1.935c5.209,0,9.822,1.191,13.543,3.572
			c3.869,2.381,6.697,5.655,8.632,9.971l-9.674,2.381c-1.19-2.083-2.827-3.869-4.911-5.208c-2.083-1.34-4.613-2.084-7.44-2.084
			c-2.084,0-4.019,0.446-5.952,1.34c-1.786,0.894-3.424,2.083-4.764,3.722c-1.339,1.487-2.381,3.423-3.272,5.356
			c-0.744,2.083-1.19,4.315-1.19,6.548c0,2.382,0.446,4.613,1.19,6.549c0.744,2.084,1.786,3.868,3.272,5.356
			c1.34,1.488,2.978,2.828,4.764,3.721c1.785,0.894,3.721,1.341,5.952,1.341c2.827,0,5.208-0.744,7.44-2.084
			c2.084-1.34,3.869-3.125,4.911-5.209L106.704,98.669L106.704,98.669z M119.8,111.319h-8.481V65.333h8.481V111.319L119.8,111.319z
			 M154.475,105.663l-0.298,0.446c-1.487,1.785-3.273,3.273-5.654,4.314c-2.232,1.042-4.911,1.488-7.889,1.488
			c-2.381,0-4.465-0.446-6.548-1.339c-2.084-0.895-3.869-2.084-5.507-3.572c-1.637-1.487-2.827-3.273-3.721-5.208
			c-0.894-2.084-1.339-4.167-1.339-6.549c0-2.231,0.445-4.464,1.339-6.548c0.894-2.083,2.084-3.869,3.721-5.357
			c1.488-1.488,3.423-2.679,5.507-3.571c2.083-0.894,4.315-1.34,6.548-1.34c2.53,0,4.764,0.446,6.994,1.34
			c2.232,0.894,4.02,2.232,5.655,3.869c1.488,1.638,2.679,3.869,3.423,6.25c0.744,2.53,1.042,5.209,0.744,8.334h-25.15
			c0.597,1.936,1.638,3.572,3.125,4.613c1.488,1.042,3.274,1.638,5.209,1.638c1.341,0,2.53-0.298,3.722-0.744
			c1.19-0.445,2.083-1.189,2.827-2.381L154.475,105.663L154.475,105.663z M148.821,91.823c-0.447-1.785-1.488-3.273-2.978-4.464
			c-1.487-1.042-3.273-1.639-5.356-1.639c-1.937,0-3.572,0.597-5.062,1.639c-1.487,1.041-2.528,2.528-3.125,4.464H148.821
			L148.821,91.823z M183.644,111.319c-0.299-0.744-0.596-1.786-0.894-2.978c-1.189,1.042-2.53,1.936-4.167,2.679
			c-1.637,0.597-3.721,0.894-5.953,0.894c-1.785,0-3.423-0.148-5.06-0.595c-1.637-0.447-2.978-1.042-4.315-1.936
			c-1.19-0.894-2.231-1.935-2.977-3.273c-0.744-1.34-1.19-2.827-1.19-4.466c0-1.784,0.297-3.272,1.041-4.464
			c0.744-1.19,1.786-2.084,2.978-2.828c1.19-0.743,2.679-1.189,4.314-1.637c1.639-0.298,3.424-0.596,5.209-0.744
			c1.34-0.148,2.68-0.298,3.869-0.445c1.191-0.149,2.232-0.446,2.978-0.597c0.894-0.298,1.487-0.595,1.935-1.042
			c0.447-0.445,0.744-0.893,0.744-1.637c0-0.893-0.595-1.488-1.637-2.083c-1.042-0.596-2.53-0.895-4.466-0.895
			c-0.743,0-1.487,0.149-2.231,0.299c-0.744,0.148-1.488,0.445-2.232,0.744c-0.595,0.298-1.189,0.743-1.785,1.189
			c-0.445,0.446-0.894,1.042-1.042,1.637c-0.445-0.147-1.042-0.147-1.785-0.297c-0.744-0.148-1.488-0.298-2.232-0.596
			s-1.487-0.298-2.23-0.595c-0.744-0.149-1.341-0.299-1.937-0.447c0.447-1.19,1.042-2.381,2.084-3.423
			c0.894-1.041,2.083-1.936,3.274-2.68c1.339-0.743,2.826-1.339,4.464-1.784c1.638-0.447,3.423-0.597,5.356-0.597
			c2.232,0,4.167,0.148,5.806,0.597c1.637,0.445,2.977,0.893,4.018,1.637c1.042,0.744,1.936,1.488,2.53,2.231
			c0.595,0.894,1.19,1.638,1.488,2.382c0.297,0.743,0.595,1.487,0.595,2.231c0.149,0.744,0.149,1.19,0.149,1.637v16.521
			c0,0.744,0.147,1.637,0.297,2.679c0.148,1.042,0.446,1.786,0.596,2.529h-7.59L183.644,111.319L183.644,111.319z M182.602,95.99
			c-0.894,0.596-2.083,1.042-3.424,1.34c-1.339,0.298-2.976,0.596-4.762,0.744c-2.084,0.147-3.721,0.595-5.06,1.042
			c-1.191,0.445-1.786,1.339-1.786,2.528c0,0.895,0.446,1.639,1.488,2.232c1.042,0.596,2.381,0.894,4.167,0.894
			c1.339,0,2.528-0.148,3.57-0.298c1.19-0.148,2.084-0.596,2.978-1.042c0.893-0.445,1.487-1.042,1.935-1.786
			s0.744-1.637,0.744-2.679v-2.977L182.602,95.99L182.602,95.99z M226.058,111.319h-8.483V92.715c0-0.446,0-1.042-0.147-1.786
			c-0.149-0.744-0.446-1.488-0.744-2.083c-0.446-0.744-1.042-1.19-1.786-1.786c-0.894-0.445-1.935-0.744-3.423-0.744
			c-1.936,0-3.571,0.597-4.613,1.786c-1.189,1.19-1.786,2.68-1.786,4.464v18.604h-8.481V79.323h8.186v3.125
			c1.041-1.19,2.381-2.084,3.72-2.828c1.488-0.744,2.978-1.041,4.911-1.041c1.935,0,3.722,0.297,5.357,1.041
			c1.638,0.744,2.977,1.638,4.167,2.828c1.19,1.189,1.935,2.679,2.679,4.465c0.596,1.785,0.895,3.571,0.895,5.804v18.604
			L226.058,111.319L226.058,111.319z M275.912,111.319h-8.334V79.917l-9.078,31.401h-9.077l-9.078-31.401v31.401h-8.334v-42.86
			h12.649l9.375,32.146l9.376-32.146h12.8v42.86H275.912z M304.338,111.319c-0.299-0.744-0.597-1.786-0.895-2.978
			c-1.19,1.042-2.529,1.936-4.167,2.679c-1.637,0.597-3.72,0.894-5.952,0.894c-1.786,0-3.423-0.148-5.061-0.595
			s-2.977-1.042-4.315-1.936c-1.189-0.894-2.231-1.935-2.977-3.273c-0.744-1.34-1.19-2.827-1.19-4.466
			c0-1.784,0.298-3.272,1.042-4.464c0.744-1.19,1.786-2.084,2.978-2.828c1.19-0.743,2.679-1.189,4.314-1.637
			c1.637-0.298,3.423-0.596,5.209-0.744c1.339-0.148,2.679-0.298,3.869-0.445c1.19-0.149,2.232-0.446,2.977-0.597
			c0.894-0.298,1.488-0.595,1.936-1.042c0.446-0.445,0.744-0.893,0.744-1.637c0-0.893-0.597-1.488-1.639-2.083
			c-1.041-0.596-2.528-0.895-4.464-0.895c-0.744,0-1.487,0.149-2.231,0.299c-0.744,0.148-1.488,0.445-2.232,0.744
			c-0.596,0.298-1.189,0.743-1.786,1.189c-0.445,0.446-0.893,1.042-1.042,1.637c-0.445-0.147-1.041-0.147-1.785-0.297
			c-0.743-0.148-1.487-0.298-2.231-0.596c-0.744-0.148-1.488-0.298-2.232-0.595c-0.743-0.149-1.34-0.299-1.935-0.447
			c0.446-1.19,1.042-2.381,2.083-3.423c0.894-1.041,2.084-1.936,3.273-2.68c1.341-0.743,2.827-1.339,4.466-1.784
			c1.637-0.447,3.423-0.597,5.356-0.597c2.232,0,4.167,0.148,5.804,0.597c1.638,0.445,2.978,0.893,4.02,1.637
			s1.935,1.488,2.529,2.231c0.596,0.894,1.19,1.638,1.487,2.382c0.298,0.743,0.597,1.487,0.597,2.231
			c0.147,0.744,0.147,1.19,0.147,1.637v16.521c0,0.744,0.149,1.637,0.298,2.679c0.149,1.042,0.446,1.786,0.597,2.529h-7.59
			L304.338,111.319L304.338,111.319z M303.147,95.99c-0.895,0.596-2.084,1.042-3.423,1.34c-1.34,0.298-2.978,0.596-4.764,0.744
			c-2.083,0.147-3.721,0.595-5.06,1.042c-1.19,0.445-1.786,1.339-1.786,2.528c0,0.895,0.446,1.639,1.488,2.232
			c1.042,0.596,2.381,0.894,4.167,0.894c1.339,0,2.53-0.148,3.571-0.298c1.189-0.148,2.084-0.596,2.977-1.042
			c0.893-0.445,1.488-1.042,1.935-1.786c0.447-0.744,0.744-1.637,0.744-2.679v-2.977L303.147,95.99L303.147,95.99z M336.632,111.319
			l-6.847-10.864l-6.995,10.864h-9.673l11.607-16.37l-10.863-15.329h9.673l6.251,9.674l6.103-9.674h9.673l-10.863,15.329
			l11.607,16.37H336.632L336.632,111.319z"/>
		<path fill="#F58220" d="M175.31,123.224c1.487,0,2.827,0.149,3.868,0.597c1.191,0.445,2.084,0.893,2.828,1.487
			c0.744,0.596,1.339,1.339,1.936,2.083c0.445,0.744,0.744,1.638,0.893,2.53l-4.762,1.19c0-1.042-0.596-1.786-1.34-2.53
			c-0.894-0.595-2.083-1.042-3.571-1.042c-0.596,0-1.19,0-1.786,0.148c-0.595,0.148-1.189,0.299-1.637,0.596
			c-0.446,0.298-0.894,0.596-1.042,0.894c-0.298,0.298-0.446,0.744-0.446,1.19c0,0.893,0.446,1.487,1.339,1.935
			c0.895,0.446,2.382,0.744,4.316,1.19c1.488,0.298,2.827,0.596,4.167,0.894c1.189,0.297,2.231,0.894,3.125,1.339
			c0.893,0.597,1.488,1.19,1.935,2.084s0.744,1.936,0.744,3.125c0,1.19-0.298,2.232-0.744,3.125
			c-0.445,0.894-1.189,1.786-2.083,2.382s-2.084,1.189-3.273,1.487c-1.339,0.298-2.827,0.597-4.315,0.597
			c-1.189,0-2.231-0.149-3.423-0.446c-1.19-0.298-2.232-0.744-3.126-1.34c-0.893-0.597-1.785-1.339-2.381-2.232
			c-0.744-0.893-1.042-1.935-1.339-3.125c0.893-0.147,1.785-0.446,2.679-0.596c0.893-0.148,1.488-0.446,2.083-0.446
			c0,0.744,0.298,1.19,0.596,1.786c0.298,0.446,0.744,0.893,1.339,1.19c0.597,0.298,1.042,0.596,1.786,0.743
			c0.597,0.148,1.339,0.299,1.936,0.299c0.744,0,1.34,0,2.084-0.149c0.743-0.148,1.339-0.297,1.785-0.595
			c0.596-0.298,1.042-0.597,1.34-1.042c0.298-0.446,0.446-0.894,0.446-1.488c0-0.446-0.148-0.744-0.299-1.042
			c-0.147-0.297-0.445-0.595-1.042-0.893c-0.445-0.299-1.041-0.446-1.784-0.744c-0.744-0.298-1.786-0.446-2.978-0.596
			c-1.189-0.148-2.381-0.446-3.423-0.743c-1.19-0.299-2.084-0.744-2.978-1.341c-0.893-0.595-1.637-1.189-2.083-2.083
			c-0.596-0.894-0.894-1.936-0.894-3.273c0-1.042,0.298-1.936,0.744-2.827c0.446-0.894,1.189-1.638,1.935-2.232
			c0.895-0.596,1.936-1.042,3.125-1.487C172.483,123.372,173.822,123.224,175.31,123.224L175.31,123.224z M217.128,123.224
			c1.786,0,3.424,0.298,4.911,1.042c1.488,0.596,2.827,1.488,3.869,2.68c1.042,1.19,1.936,2.529,2.53,4.018s0.893,3.126,0.893,4.911
			c0,1.786-0.298,3.423-0.893,4.911c-0.596,1.487-1.488,2.828-2.53,4.019c-1.042,1.191-2.381,2.083-3.869,2.68
			c-1.487,0.596-3.125,1.042-4.911,1.042c-1.785,0-3.423-0.299-5.06-1.042c-1.488-0.597-2.828-1.488-3.869-2.68
			c-1.042-1.189-1.935-2.529-2.53-4.019c-0.595-1.489-0.893-3.273-0.893-4.911c0-1.785,0.297-3.423,0.893-4.911
			c0.597-1.487,1.488-2.827,2.53-4.018c1.041-1.19,2.381-2.084,3.869-2.68C213.557,123.522,215.194,123.224,217.128,123.224
			L217.128,123.224z M217.128,144.207c1.042,0,2.085-0.148,2.978-0.595c0.893-0.447,1.786-1.042,2.381-1.786
			c0.744-0.744,1.19-1.638,1.638-2.68c0.446-1.042,0.596-2.083,0.596-3.273s-0.148-2.231-0.596-3.125
			c-0.446-1.042-0.894-1.936-1.638-2.679c-0.744-0.744-1.488-1.34-2.381-1.786c-0.894-0.446-1.936-0.596-2.978-0.596
			s-2.083,0.148-2.977,0.596c-0.893,0.446-1.785,1.042-2.381,1.786c-0.744,0.743-1.19,1.637-1.637,2.679
			c-0.447,1.042-0.597,2.084-0.597,3.125c0,1.19,0.149,2.231,0.597,3.273c0.446,1.042,0.893,1.936,1.637,2.68
			s1.488,1.34,2.381,1.786C215.045,143.91,216.086,144.207,217.128,144.207L217.128,144.207z M254.035,143.761h12.65v4.316h-17.563
			V123.82h4.911L254.035,143.761L254.035,143.761z M290.496,143.316l-1.785,4.91h-5.061l8.93-24.258h6.103l8.929,24.258h-5.208
			l-1.786-4.91H290.496L290.496,143.316z M295.557,128.879l-3.572,9.971h7.145L295.557,128.879L295.557,128.879z M346.156,131.706
			c0,1.786-0.446,3.423-1.488,4.763c-1.042,1.339-2.381,2.232-4.019,2.679l5.507,9.078h-5.655l-5.356-8.632h-3.869v8.632h-4.911
			V123.82h11.311c1.34,0,2.529,0.147,3.571,0.595s1.936,0.894,2.68,1.638c0.743,0.744,1.189,1.487,1.637,2.529
			C346.007,129.325,346.156,130.516,346.156,131.706L346.156,131.706z M331.274,128.135v7.145h6.548c1.19,0,1.936-0.298,2.679-0.895
			c0.596-0.595,0.894-1.487,0.894-2.679c0-1.19-0.298-2.083-0.894-2.679s-1.487-0.894-2.679-0.894L331.274,128.135L331.274,128.135z
			"/>
		<g>
			<g>
				<path fill="#58595B" d="M344.518,61.017h4.614c1.339,0,2.381,0.446,2.976,1.042c0.596,0.597,0.894,1.341,0.894,2.232l0,0
					c0,1.637-1.041,2.679-2.381,3.125l2.827,3.869h-2.084l-2.529-3.571h-2.231v3.571h-1.786V61.017H344.518L344.518,61.017z
					 M348.983,66.226c1.34,0,2.084-0.743,2.084-1.785l0,0c0-1.041-0.744-1.638-2.084-1.638h-2.679v3.423H348.983z"/>
			</g>
		</g>
		<g>
			<g>
				<path fill="#58595B" d="M348.983,76.346c-5.506,0-10.119-4.465-10.119-10.12s4.464-10.12,10.119-10.12
					c5.507,0,10.12,4.464,10.12,10.12S354.49,76.346,348.983,76.346z M348.983,57.594c-4.762,0-8.632,3.869-8.632,8.631
					c0,4.764,3.87,8.632,8.632,8.632c4.763,0,8.632-3.868,8.632-8.632C357.467,61.463,353.596,57.594,348.983,57.594z"/>
			</g>
		</g>
	</g>
</g>
</svg>
